# 3ds Max Wavefront OBJ Exporter v0.97b - (c)2007 guruware
# File Created: 18.08.2016 22:00:48

mtllib F40tire_front_right.mtl

#
# object F40tire_front_right_chrom
#

v  -2.4735 0.8870 5.9779
v  -2.4703 0.8870 6.1323
v  -2.4735 1.0609 6.0054
v  -2.4703 1.0131 6.1523
v  -2.5508 0.8870 5.9586
v  -2.5508 1.0668 5.9871
v  -2.3921 0.8870 5.9349
v  -1.7947 0.8870 5.9363
v  -2.3921 1.0741 5.9645
v  -1.7947 1.0737 5.9659
v  -2.4735 1.2177 6.0853
v  -2.4703 1.1270 6.2103
v  -2.5508 1.2291 6.0697
v  -2.3921 1.2430 6.0506
v  -1.7947 1.2422 6.0517
v  -2.4735 1.3422 6.2098
v  -2.4703 1.2173 6.3006
v  -2.5508 1.3579 6.1985
v  -2.3921 1.3770 6.1846
v  -1.7947 1.3759 6.1854
v  -2.4735 1.4222 6.3667
v  -2.4703 1.2753 6.4144
v  -2.5508 1.4405 6.3607
v  -2.3921 1.4630 6.3534
v  -1.7947 1.4617 6.3539
v  -2.4735 1.4497 6.5406
v  -2.4703 1.2953 6.5406
v  -2.5508 1.4690 6.5406
v  -2.3921 1.4927 6.5406
v  -1.7947 1.4913 6.5406
v  -2.4735 1.4222 6.7145
v  -2.4703 1.2753 6.6668
v  -2.5508 1.4405 6.7205
v  -2.3921 1.4630 6.7278
v  -1.7947 1.4617 6.7274
v  -2.4735 1.3422 6.8714
v  -2.4703 1.2173 6.7806
v  -2.5508 1.3579 6.8827
v  -2.3921 1.3770 6.8966
v  -1.7947 1.3759 6.8958
v  -2.4735 1.2177 6.9959
v  -2.4703 1.1270 6.8709
v  -2.5508 1.2291 7.0115
v  -2.3921 1.2430 7.0306
v  -1.7947 1.2422 7.0295
v  -2.4735 1.0609 7.0758
v  -2.4703 1.0131 6.9289
v  -2.5508 1.0668 7.0942
v  -2.3921 1.0741 7.1167
v  -1.7947 1.0737 7.1153
v  -2.4735 0.8870 7.1033
v  -2.4703 0.8870 6.9489
v  -2.5508 0.8870 7.1226
v  -2.3921 0.8870 7.1463
v  -1.7947 0.8870 7.1449
v  -2.4735 0.7131 7.0758
v  -2.4703 0.7608 6.9289
v  -2.5508 0.7071 7.0942
v  -2.3921 0.6998 7.1167
v  -1.7947 0.7002 7.1153
v  -2.4735 0.5562 6.9959
v  -2.4703 0.6470 6.8709
v  -2.5508 0.5449 7.0115
v  -2.3921 0.5310 7.0306
v  -1.7947 0.5318 7.0295
v  -2.4735 0.4317 6.8714
v  -2.4703 0.5566 6.7806
v  -2.5508 0.4161 6.8827
v  -2.3921 0.3970 6.8966
v  -1.7947 0.3981 6.8958
v  -2.4735 0.3518 6.7145
v  -2.4703 0.4986 6.6668
v  -2.5508 0.3334 6.7205
v  -2.3921 0.3109 6.7278
v  -1.7947 0.3122 6.7274
v  -2.4735 0.3242 6.5406
v  -2.4703 0.4787 6.5406
v  -2.5508 0.3049 6.5406
v  -2.3921 0.2813 6.5406
v  -1.7947 0.2827 6.5406
v  -2.4735 0.3518 6.3667
v  -2.4703 0.4986 6.4144
v  -2.5508 0.3334 6.3607
v  -2.3921 0.3109 6.3534
v  -1.7947 0.3122 6.3539
v  -2.4735 0.4317 6.2098
v  -2.4703 0.5566 6.3006
v  -2.5508 0.4161 6.1985
v  -2.3921 0.3970 6.1846
v  -1.7947 0.3981 6.1854
v  -2.4735 0.5562 6.0853
v  -2.4703 0.6470 6.2103
v  -2.5508 0.5449 6.0697
v  -2.3921 0.5310 6.0506
v  -1.7947 0.5318 6.0517
v  -2.4735 0.7131 6.0054
v  -2.4703 0.7608 6.1523
v  -2.5508 0.7071 5.9871
v  -2.3921 0.6998 5.9645
v  -1.7947 0.7002 5.9659
v  -2.3732 1.0846 6.8913
v  -2.3732 1.0818 6.6796
v  -2.4676 1.0846 6.8913
v  -2.4676 1.0818 6.6796
v  -2.3732 1.0134 6.9281
v  -2.4676 1.0134 6.9281
v  -2.3732 0.9490 6.9383
v  -2.4676 0.9490 6.9383
v  -2.3732 0.8151 6.7685
v  -2.4676 0.8151 6.7685
v  -2.3732 0.5907 6.8140
v  -2.4676 0.5907 6.8140
v  -2.3732 0.5570 6.7806
v  -2.4676 0.5570 6.7806
v  -2.3732 0.5252 6.7182
v  -2.4676 0.5252 6.7182
v  -2.3732 0.6477 6.5401
v  -2.4676 0.6477 6.5401
v  -2.3732 0.5284 6.3571
v  -2.4676 0.5284 6.3571
v  -2.3732 0.5572 6.3009
v  -2.4676 0.5572 6.3009
v  -2.3732 0.6007 6.2567
v  -2.4676 0.6007 6.2567
v  -2.3732 0.8063 6.3134
v  -2.4676 0.8063 6.3134
v  -2.3732 0.9598 6.1443
v  -2.4676 0.9598 6.1443
v  -2.3732 1.0127 6.1524
v  -2.4676 1.0127 6.1524
v  -2.3732 1.0743 6.1845
v  -2.4676 1.0743 6.1845
v  -2.3732 1.0783 6.3971
v  -2.4676 1.0783 6.3971
v  -2.3732 1.2844 6.4747
v  -2.4676 1.2844 6.4747
v  -2.3732 1.2949 6.5406
v  -2.4676 1.2949 6.5406
v  -2.3732 1.2856 6.5994
v  -2.4676 1.2856 6.5994
# 140 vertices

vn -0.9998 0.0000 0.0208
vn -0.9998 -0.0064 0.0198
vn -0.2425 -0.0000 0.9701
vn -0.2425 -0.2998 0.9227
vn -0.0023 -0.0000 1.0000
vn -0.0023 -0.3090 0.9511
vn 0.9296 -0.0000 0.3685
vn 0.9296 -0.1139 0.3505
vn -0.9998 -0.0122 0.0168
vn -0.2425 -0.5702 0.7849
vn -0.0023 -0.5878 0.8090
vn 0.9296 -0.2166 0.2981
vn -0.9998 -0.0169 0.0122
vn -0.2425 -0.7849 0.5702
vn -0.0023 -0.8090 0.5878
vn 0.9296 -0.2981 0.2166
vn -0.9998 -0.0198 0.0064
vn -0.2425 -0.9227 0.2998
vn -0.0023 -0.9511 0.3090
vn 0.9296 -0.3505 0.1139
vn -0.9998 -0.0208 0.0000
vn -0.2425 -0.9701 -0.0000
vn -0.2425 -0.9701 0.0000
vn -0.0023 -1.0000 -0.0000
vn 0.9296 -0.3685 -0.0000
vn -0.9998 -0.0198 -0.0064
vn -0.2425 -0.9227 -0.2998
vn -0.0023 -0.9511 -0.3090
vn 0.9296 -0.3505 -0.1139
vn -0.9998 -0.0169 -0.0122
vn -0.2425 -0.7849 -0.5702
vn -0.0023 -0.8090 -0.5878
vn 0.9296 -0.2981 -0.2166
vn -0.9998 -0.0122 -0.0169
vn -0.2425 -0.5702 -0.7849
vn -0.0023 -0.5878 -0.8090
vn 0.9296 -0.2166 -0.2981
vn -0.9998 -0.0064 -0.0198
vn -0.2425 -0.2998 -0.9227
vn -0.0023 -0.3090 -0.9511
vn 0.9296 -0.1139 -0.3505
vn -0.9998 0.0000 -0.0208
vn -0.9998 -0.0000 -0.0208
vn -0.2425 -0.0000 -0.9701
vn -0.2425 0.0000 -0.9701
vn -0.0023 -0.0000 -1.0000
vn -0.0023 0.0000 -1.0000
vn 0.9296 0.0000 -0.3685
vn -0.9998 0.0064 -0.0198
vn -0.2425 0.2998 -0.9227
vn -0.0023 0.3090 -0.9511
vn 0.9296 0.1139 -0.3505
vn -0.9998 0.0122 -0.0169
vn -0.2425 0.5702 -0.7849
vn -0.0023 0.5878 -0.8090
vn 0.9296 0.2166 -0.2981
vn -0.9998 0.0169 -0.0122
vn -0.2425 0.7849 -0.5702
vn -0.0023 0.8090 -0.5878
vn 0.9296 0.2981 -0.2166
vn -0.9998 0.0198 -0.0064
vn -0.2425 0.9227 -0.2998
vn -0.0023 0.9511 -0.3090
vn 0.9296 0.3505 -0.1139
vn -0.9998 0.0208 0.0000
vn -0.9998 0.0208 -0.0000
vn -0.2425 0.9701 0.0000
vn -0.0023 1.0000 0.0000
vn 0.9296 0.3685 0.0000
vn -0.9998 0.0198 0.0064
vn -0.2425 0.9227 0.2998
vn -0.0023 0.9511 0.3090
vn 0.9296 0.3505 0.1139
vn -0.9998 0.0169 0.0122
vn -0.9998 0.0168 0.0122
vn -0.2425 0.7849 0.5702
vn -0.0023 0.8090 0.5878
vn 0.9296 0.2981 0.2166
vn -0.9998 0.0122 0.0168
vn -0.2425 0.5702 0.7849
vn -0.0023 0.5878 0.8090
vn 0.9296 0.2166 0.2981
vn -0.9998 0.0064 0.0198
vn -0.2425 0.2998 0.9227
vn -0.0023 0.3090 0.9511
vn 0.9296 0.1139 0.3505
vn 0.0000 0.9999 -0.0133
vn 0.0000 0.4594 0.8882
vn 0.0000 0.1566 0.9877
vn 0.0000 -0.7853 0.6192
vn 0.0000 0.1989 0.9800
vn 0.0000 -0.7049 0.7093
vn 0.0000 -0.8911 0.4538
vn -0.0000 -0.8241 -0.5665
vn 0.0000 -0.8241 -0.5665
vn 0.0000 -0.8378 0.5460
vn 0.0000 -0.8905 -0.4550
vn 0.0000 -0.7126 -0.7015
vn 0.0000 0.2659 -0.9640
vn 0.0000 -0.7406 -0.6719
vn 0.0000 0.1514 -0.9885
vn 0.0000 0.4617 -0.8870
vn 0.0000 0.9998 -0.0188
vn 0.0000 0.3524 -0.9358
vn 0.0000 0.9874 -0.1585
vn -0.0000 0.9876 0.1571
vn 0.0000 0.9876 0.1571
vn 0.0000 0.3662 0.9305
vn -0.0000 0.3662 0.9305
vn 1.0000 0.0000 -0.0000
vn -1.0000 0.0000 -0.0000
vn -1.0000 0.0000 0.0000
vn -1.0000 -0.0000 0.0000
# 113 vertex normals

vt 0.0000 0.0000 0.0000
# 1 texture coords

g F40tire_front_right_chrom
usemtl 04___Default
f 1/1/1 2/1/1 3/1/2 
f 3/1/2 2/1/1 4/1/2 
f 5/1/3 1/1/3 6/1/4 
f 6/1/4 1/1/3 3/1/4 
f 7/1/5 8/1/5 9/1/6 
f 9/1/6 8/1/5 10/1/6 
f 2/1/7 7/1/7 4/1/8 
f 4/1/8 7/1/7 9/1/8 
f 3/1/2 4/1/2 11/1/9 
f 11/1/9 4/1/2 12/1/9 
f 6/1/4 3/1/4 13/1/10 
f 13/1/10 3/1/4 11/1/10 
f 9/1/6 10/1/6 14/1/11 
f 14/1/11 10/1/6 15/1/11 
f 4/1/8 9/1/8 12/1/12 
f 12/1/12 9/1/8 14/1/12 
f 11/1/9 12/1/9 16/1/13 
f 16/1/13 12/1/9 17/1/13 
f 13/1/10 11/1/10 18/1/14 
f 18/1/14 11/1/10 16/1/14 
f 14/1/11 15/1/11 19/1/15 
f 19/1/15 15/1/11 20/1/15 
f 12/1/12 14/1/12 17/1/16 
f 17/1/16 14/1/12 19/1/16 
f 16/1/13 17/1/13 21/1/17 
f 21/1/17 17/1/13 22/1/17 
f 18/1/14 16/1/14 23/1/18 
f 23/1/18 16/1/14 21/1/18 
f 19/1/15 20/1/15 24/1/19 
f 24/1/19 20/1/15 25/1/19 
f 17/1/16 19/1/16 22/1/20 
f 22/1/20 19/1/16 24/1/20 
f 21/1/17 22/1/17 26/1/21 
f 26/1/21 22/1/17 27/1/21 
f 23/1/18 21/1/18 28/1/22 
f 28/1/22 21/1/18 26/1/23 
f 24/1/19 25/1/19 29/1/24 
f 29/1/24 25/1/19 30/1/24 
f 22/1/20 24/1/20 27/1/25 
f 27/1/25 24/1/20 29/1/25 
f 26/1/21 27/1/21 31/1/26 
f 31/1/26 27/1/21 32/1/26 
f 28/1/22 26/1/23 33/1/27 
f 33/1/27 26/1/23 31/1/27 
f 29/1/24 30/1/24 34/1/28 
f 34/1/28 30/1/24 35/1/28 
f 27/1/25 29/1/25 32/1/29 
f 32/1/29 29/1/25 34/1/29 
f 31/1/26 32/1/26 36/1/30 
f 36/1/30 32/1/26 37/1/30 
f 33/1/27 31/1/27 38/1/31 
f 38/1/31 31/1/27 36/1/31 
f 34/1/28 35/1/28 39/1/32 
f 39/1/32 35/1/28 40/1/32 
f 32/1/29 34/1/29 37/1/33 
f 37/1/33 34/1/29 39/1/33 
f 36/1/30 37/1/30 41/1/34 
f 41/1/34 37/1/30 42/1/34 
f 38/1/31 36/1/31 43/1/35 
f 43/1/35 36/1/31 41/1/35 
f 39/1/32 40/1/32 44/1/36 
f 44/1/36 40/1/32 45/1/36 
f 37/1/33 39/1/33 42/1/37 
f 42/1/37 39/1/33 44/1/37 
f 41/1/34 42/1/34 46/1/38 
f 46/1/38 42/1/34 47/1/38 
f 43/1/35 41/1/35 48/1/39 
f 48/1/39 41/1/35 46/1/39 
f 44/1/36 45/1/36 49/1/40 
f 49/1/40 45/1/36 50/1/40 
f 42/1/37 44/1/37 47/1/41 
f 47/1/41 44/1/37 49/1/41 
f 46/1/38 47/1/38 51/1/42 
f 51/1/42 47/1/38 52/1/43 
f 48/1/39 46/1/39 53/1/44 
f 53/1/44 46/1/39 51/1/45 
f 49/1/40 50/1/40 54/1/46 
f 54/1/46 50/1/40 55/1/47 
f 47/1/41 49/1/41 52/1/48 
f 52/1/48 49/1/41 54/1/48 
f 51/1/42 52/1/43 56/1/49 
f 56/1/49 52/1/43 57/1/49 
f 53/1/44 51/1/45 58/1/50 
f 58/1/50 51/1/45 56/1/50 
f 54/1/46 55/1/47 59/1/51 
f 59/1/51 55/1/47 60/1/51 
f 52/1/48 54/1/48 57/1/52 
f 57/1/52 54/1/48 59/1/52 
f 56/1/49 57/1/49 61/1/53 
f 61/1/53 57/1/49 62/1/53 
f 58/1/50 56/1/50 63/1/54 
f 63/1/54 56/1/50 61/1/54 
f 59/1/51 60/1/51 64/1/55 
f 64/1/55 60/1/51 65/1/55 
f 57/1/52 59/1/52 62/1/56 
f 62/1/56 59/1/52 64/1/56 
f 61/1/53 62/1/53 66/1/57 
f 66/1/57 62/1/53 67/1/57 
f 63/1/54 61/1/54 68/1/58 
f 68/1/58 61/1/54 66/1/58 
f 64/1/55 65/1/55 69/1/59 
f 69/1/59 65/1/55 70/1/59 
f 62/1/56 64/1/56 67/1/60 
f 67/1/60 64/1/56 69/1/60 
f 66/1/57 67/1/57 71/1/61 
f 71/1/61 67/1/57 72/1/61 
f 68/1/58 66/1/58 73/1/62 
f 73/1/62 66/1/58 71/1/62 
f 69/1/59 70/1/59 74/1/63 
f 74/1/63 70/1/59 75/1/63 
f 67/1/60 69/1/60 72/1/64 
f 72/1/64 69/1/60 74/1/64 
f 71/1/61 72/1/61 76/1/65 
f 76/1/65 72/1/61 77/1/66 
f 73/1/62 71/1/62 78/1/67 
f 78/1/67 71/1/62 76/1/67 
f 74/1/63 75/1/63 79/1/68 
f 79/1/68 75/1/63 80/1/68 
f 72/1/64 74/1/64 77/1/69 
f 77/1/69 74/1/64 79/1/69 
f 76/1/65 77/1/66 81/1/70 
f 81/1/70 77/1/66 82/1/70 
f 78/1/67 76/1/67 83/1/71 
f 83/1/71 76/1/67 81/1/71 
f 79/1/68 80/1/68 84/1/72 
f 84/1/72 80/1/68 85/1/72 
f 77/1/69 79/1/69 82/1/73 
f 82/1/73 79/1/69 84/1/73 
f 81/1/70 82/1/70 86/1/74 
f 86/1/74 82/1/70 87/1/75 
f 83/1/71 81/1/71 88/1/76 
f 88/1/76 81/1/71 86/1/76 
f 84/1/72 85/1/72 89/1/77 
f 89/1/77 85/1/72 90/1/77 
f 82/1/73 84/1/73 87/1/78 
f 87/1/78 84/1/73 89/1/78 
f 86/1/74 87/1/75 91/1/79 
f 91/1/79 87/1/75 92/1/79 
f 88/1/76 86/1/76 93/1/80 
f 93/1/80 86/1/76 91/1/80 
f 89/1/77 90/1/77 94/1/81 
f 94/1/81 90/1/77 95/1/81 
f 87/1/78 89/1/78 92/1/82 
f 92/1/82 89/1/78 94/1/82 
f 91/1/79 92/1/79 96/1/83 
f 96/1/83 92/1/79 97/1/83 
f 93/1/80 91/1/80 98/1/84 
f 98/1/84 91/1/80 96/1/84 
f 94/1/81 95/1/81 99/1/85 
f 99/1/85 95/1/81 100/1/85 
f 92/1/82 94/1/82 97/1/86 
f 97/1/86 94/1/82 99/1/86 
f 96/1/83 97/1/83 1/1/1 
f 1/1/1 97/1/83 2/1/1 
f 98/1/84 96/1/84 5/1/3 
f 5/1/3 96/1/84 1/1/3 
f 99/1/85 100/1/85 7/1/5 
f 7/1/5 100/1/85 8/1/5 
f 97/1/86 99/1/86 2/1/7 
f 2/1/7 99/1/86 7/1/7 
f 101/1/87 102/1/87 103/1/87 
f 103/1/87 102/1/87 104/1/87 
f 105/1/88 101/1/88 106/1/88 
f 106/1/88 101/1/88 103/1/88 
f 107/1/89 105/1/89 108/1/89 
f 108/1/89 105/1/89 106/1/89 
f 109/1/90 107/1/90 110/1/90 
f 110/1/90 107/1/90 108/1/90 
f 111/1/91 109/1/91 112/1/91 
f 112/1/91 109/1/91 110/1/91 
f 113/1/92 111/1/92 114/1/92 
f 114/1/92 111/1/92 112/1/92 
f 115/1/93 113/1/93 116/1/93 
f 116/1/93 113/1/93 114/1/93 
f 117/1/94 115/1/94 118/1/94 
f 118/1/94 115/1/94 116/1/95 
f 119/1/96 117/1/96 120/1/96 
f 120/1/96 117/1/96 118/1/96 
f 121/1/97 119/1/97 122/1/97 
f 122/1/97 119/1/97 120/1/97 
f 123/1/98 121/1/98 124/1/98 
f 124/1/98 121/1/98 122/1/98 
f 125/1/99 123/1/99 126/1/99 
f 126/1/99 123/1/99 124/1/99 
f 127/1/100 125/1/100 128/1/100 
f 128/1/100 125/1/100 126/1/100 
f 129/1/101 127/1/101 130/1/101 
f 130/1/101 127/1/101 128/1/101 
f 131/1/102 129/1/102 132/1/102 
f 132/1/102 129/1/102 130/1/102 
f 133/1/103 131/1/103 134/1/103 
f 134/1/103 131/1/103 132/1/103 
f 135/1/104 133/1/104 136/1/104 
f 136/1/104 133/1/104 134/1/104 
f 137/1/105 135/1/105 138/1/105 
f 138/1/105 135/1/105 136/1/105 
f 139/1/106 137/1/106 140/1/106 
f 140/1/106 137/1/106 138/1/107 
f 102/1/108 139/1/109 104/1/109 
f 104/1/109 139/1/109 140/1/109 
f 125/1/110 121/1/110 123/1/110 
f 125/1/110 119/1/110 121/1/110 
f 125/1/110 117/1/110 119/1/110 
f 105/1/110 102/1/110 101/1/110 
f 107/1/110 102/1/110 105/1/110 
f 109/1/110 102/1/110 107/1/110 
f 117/1/110 113/1/110 115/1/110 
f 117/1/110 111/1/110 113/1/110 
f 117/1/110 109/1/110 111/1/110 
f 117/1/110 102/1/110 109/1/110 
f 125/1/110 102/1/110 117/1/110 
f 127/1/110 102/1/110 125/1/110 
f 129/1/110 102/1/110 127/1/110 
f 131/1/110 102/1/110 129/1/110 
f 133/1/110 102/1/110 131/1/110 
f 135/1/110 102/1/110 133/1/110 
f 135/1/110 139/1/110 102/1/110 
f 137/1/110 139/1/110 135/1/110 
f 124/1/111 122/1/111 126/1/111 
f 122/1/111 120/1/111 126/1/111 
f 120/1/111 118/1/111 126/1/111 
f 103/1/111 104/1/112 106/1/111 
f 106/1/111 104/1/112 108/1/111 
f 108/1/111 104/1/112 110/1/111 
f 116/1/111 114/1/111 118/1/111 
f 114/1/111 112/1/111 118/1/111 
f 112/1/111 110/1/111 118/1/111 
f 110/1/111 104/1/112 118/1/111 
f 118/1/111 104/1/112 126/1/111 
f 126/1/111 104/1/112 128/1/111 
f 128/1/111 104/1/112 130/1/111 
f 130/1/111 104/1/112 132/1/111 
f 132/1/111 104/1/112 134/1/111 
f 134/1/111 104/1/112 136/1/113 
f 104/1/112 140/1/112 136/1/113 
f 136/1/113 140/1/112 138/1/113 
# 236 faces

#
# object F40tire_front_right
#

v  -2.5475 0.8870 5.7237
v  -2.5508 0.8870 5.9586
v  -2.5475 1.1394 5.7637
v  -2.5508 1.0668 5.9870
v  -1.7947 0.8870 5.7237
v  -1.7947 1.1394 5.7637
v  -1.7947 0.8870 5.9363
v  -1.7947 1.0737 5.9659
v  -2.5475 1.3671 5.8797
v  -2.5508 1.2291 6.0697
v  -1.7947 1.3671 5.8797
v  -1.7947 1.2422 6.0517
v  -2.5475 1.5479 6.0604
v  -2.5508 1.3579 6.1985
v  -1.7947 1.5479 6.0604
v  -1.7947 1.3759 6.1854
v  -2.5475 1.6639 6.2882
v  -2.5508 1.4405 6.3607
v  -1.7947 1.6639 6.2882
v  -1.7947 1.4617 6.3539
v  -2.5475 1.7039 6.5406
v  -2.5508 1.4690 6.5406
v  -1.7947 1.7039 6.5406
v  -1.7947 1.4913 6.5406
v  -2.5475 1.6639 6.7930
v  -2.5508 1.4405 6.7205
v  -1.7947 1.6639 6.7930
v  -1.7947 1.4617 6.7274
v  -2.5475 1.5479 7.0208
v  -2.5508 1.3579 6.8827
v  -1.7947 1.5479 7.0208
v  -1.7947 1.3759 6.8958
v  -2.5475 1.3671 7.2015
v  -2.5508 1.2291 7.0115
v  -1.7947 1.3671 7.2015
v  -1.7947 1.2422 7.0295
v  -2.5475 1.1394 7.3175
v  -2.5508 1.0668 7.0942
v  -1.7947 1.1394 7.3175
v  -1.7947 1.0737 7.1153
v  -2.5475 0.8870 7.3575
v  -2.5508 0.8870 7.1226
v  -1.7947 0.8870 7.3575
v  -1.7947 0.8870 7.1449
v  -2.5475 0.6345 7.3175
v  -2.5508 0.7071 7.0942
v  -1.7947 0.6345 7.3175
v  -1.7947 0.7002 7.1153
v  -2.5475 0.4068 7.2015
v  -2.5508 0.5449 7.0115
v  -1.7947 0.4068 7.2015
v  -1.7947 0.5318 7.0295
v  -2.5475 0.2261 7.0208
v  -2.5508 0.4161 6.8827
v  -1.7947 0.2261 7.0208
v  -1.7947 0.3981 6.8958
v  -2.5475 0.1101 6.7930
v  -2.5508 0.3334 6.7205
v  -1.7947 0.1101 6.7930
v  -1.7947 0.3122 6.7274
v  -2.5475 0.0701 6.5406
v  -2.5508 0.3049 6.5406
v  -1.7947 0.0701 6.5406
v  -1.7947 0.2827 6.5406
v  -2.5475 0.1101 6.2882
v  -2.5508 0.3334 6.3607
v  -1.7947 0.1101 6.2882
v  -1.7947 0.3122 6.3539
v  -2.5475 0.2261 6.0604
v  -2.5508 0.4161 6.1985
v  -1.7947 0.2261 6.0604
v  -1.7947 0.3981 6.1854
v  -2.5475 0.4068 5.8797
v  -2.5508 0.5449 6.0697
v  -1.7947 0.4068 5.8797
v  -1.7947 0.5318 6.0517
v  -2.5475 0.6345 5.7637
v  -2.5508 0.7071 5.9870
v  -1.7947 0.6345 5.7637
v  -1.7947 0.7002 5.9659
# 80 vertices

vn -0.9999 0.0000 -0.0137
vn -0.9999 0.0042 -0.0130
vn 0.0000 0.0000 -1.0000
vn 0.0000 0.3090 -0.9511
vn -0.0000 0.3090 -0.9511
vn 1.0000 0.0000 -0.0000
vn -0.9999 0.0081 -0.0111
vn -0.0000 0.5878 -0.8090
vn -0.9999 0.0111 -0.0081
vn -0.0000 0.8090 -0.5878
vn 0.0000 0.8090 -0.5878
vn -0.9999 0.0130 -0.0042
vn 0.0000 0.9511 -0.3090
vn -0.0000 0.9511 -0.3090
vn -0.9999 0.0137 -0.0000
vn -0.9999 0.0137 0.0000
vn -0.0000 1.0000 0.0000
vn -0.9999 0.0130 0.0042
vn -0.0000 0.9511 0.3090
vn -0.9999 0.0111 0.0081
vn -0.0000 0.8090 0.5878
vn -0.9999 0.0081 0.0111
vn -0.0000 0.5878 0.8090
vn -0.9999 0.0042 0.0130
vn -0.0000 0.3090 0.9511
vn -0.9999 -0.0000 0.0137
vn -0.0000 -0.0000 1.0000
vn 0.0000 -0.0000 1.0000
vn -0.9999 -0.0042 0.0130
vn 0.0000 -0.3090 0.9511
vn -0.9999 -0.0081 0.0111
vn 0.0000 -0.5878 0.8090
vn -0.9999 -0.0111 0.0081
vn 0.0000 -0.8090 0.5878
vn -0.9999 -0.0130 0.0042
vn 0.0000 -0.9511 0.3090
vn -0.9999 -0.0137 0.0000
vn 0.0000 -1.0000 0.0000
vn 0.0000 -1.0000 -0.0000
vn -0.9999 -0.0130 -0.0042
vn 0.0000 -0.9511 -0.3090
vn -0.9999 -0.0111 -0.0081
vn 0.0000 -0.8090 -0.5878
vn -0.9999 -0.0081 -0.0111
vn 0.0000 -0.5878 -0.8090
vn -0.9999 -0.0042 -0.0130
vn 0.0000 -0.3090 -0.9511
# 47 vertex normals

vt 0.0000 0.0000 0.0000
# 1 texture coords

g F40tire_front_right
usemtl 02___Default
f 141/2/114 142/2/114 143/2/115 
f 143/2/115 142/2/114 144/2/115 
f 145/2/116 141/2/116 146/2/117 
f 146/2/117 141/2/116 143/2/118 
f 147/2/119 145/2/119 148/2/119 
f 148/2/119 145/2/119 146/2/119 
f 143/2/115 144/2/115 149/2/120 
f 149/2/120 144/2/115 150/2/120 
f 146/2/117 143/2/118 151/2/121 
f 151/2/121 143/2/118 149/2/121 
f 148/2/119 146/2/119 152/2/119 
f 152/2/119 146/2/119 151/2/119 
f 149/2/120 150/2/120 153/2/122 
f 153/2/122 150/2/120 154/2/122 
f 151/2/121 149/2/121 155/2/123 
f 155/2/123 149/2/121 153/2/124 
f 152/2/119 151/2/119 156/2/119 
f 156/2/119 151/2/119 155/2/119 
f 153/2/122 154/2/122 157/2/125 
f 157/2/125 154/2/122 158/2/125 
f 155/2/123 153/2/124 159/2/126 
f 159/2/126 153/2/124 157/2/127 
f 156/2/119 155/2/119 160/2/119 
f 160/2/119 155/2/119 159/2/119 
f 157/2/125 158/2/125 161/2/128 
f 161/2/128 158/2/125 162/2/129 
f 159/2/126 157/2/127 163/2/130 
f 163/2/130 157/2/127 161/2/130 
f 160/2/119 159/2/119 164/2/119 
f 164/2/119 159/2/119 163/2/119 
f 161/2/128 162/2/129 165/2/131 
f 165/2/131 162/2/129 166/2/131 
f 163/2/130 161/2/130 167/2/132 
f 167/2/132 161/2/130 165/2/132 
f 164/2/119 163/2/119 168/2/119 
f 168/2/119 163/2/119 167/2/119 
f 165/2/131 166/2/131 169/2/133 
f 169/2/133 166/2/131 170/2/133 
f 167/2/132 165/2/132 171/2/134 
f 171/2/134 165/2/132 169/2/134 
f 168/2/119 167/2/119 172/2/119 
f 172/2/119 167/2/119 171/2/119 
f 169/2/133 170/2/133 173/2/135 
f 173/2/135 170/2/133 174/2/135 
f 171/2/134 169/2/134 175/2/136 
f 175/2/136 169/2/134 173/2/136 
f 172/2/119 171/2/119 176/2/119 
f 176/2/119 171/2/119 175/2/119 
f 173/2/135 174/2/135 177/2/137 
f 177/2/137 174/2/135 178/2/137 
f 175/2/136 173/2/136 179/2/138 
f 179/2/138 173/2/136 177/2/138 
f 176/2/119 175/2/119 180/2/119 
f 180/2/119 175/2/119 179/2/119 
f 177/2/137 178/2/137 181/2/139 
f 181/2/139 178/2/137 182/2/139 
f 179/2/138 177/2/138 183/2/140 
f 183/2/140 177/2/138 181/2/141 
f 180/2/119 179/2/119 184/2/119 
f 184/2/119 179/2/119 183/2/119 
f 181/2/139 182/2/139 185/2/142 
f 185/2/142 182/2/139 186/2/142 
f 183/2/140 181/2/141 187/2/143 
f 187/2/143 181/2/141 185/2/143 
f 184/2/119 183/2/119 188/2/119 
f 188/2/119 183/2/119 187/2/119 
f 185/2/142 186/2/142 189/2/144 
f 189/2/144 186/2/142 190/2/144 
f 187/2/143 185/2/143 191/2/145 
f 191/2/145 185/2/143 189/2/145 
f 188/2/119 187/2/119 192/2/119 
f 192/2/119 187/2/119 191/2/119 
f 189/2/144 190/2/144 193/2/146 
f 193/2/146 190/2/144 194/2/146 
f 191/2/145 189/2/145 195/2/147 
f 195/2/147 189/2/145 193/2/147 
f 192/2/119 191/2/119 196/2/119 
f 196/2/119 191/2/119 195/2/119 
f 193/2/146 194/2/146 197/2/148 
f 197/2/148 194/2/146 198/2/148 
f 195/2/147 193/2/147 199/2/149 
f 199/2/149 193/2/147 197/2/149 
f 196/2/119 195/2/119 200/2/119 
f 200/2/119 195/2/119 199/2/119 
f 197/2/148 198/2/148 201/2/150 
f 201/2/150 198/2/148 202/2/150 
f 199/2/149 197/2/149 203/2/151 
f 203/2/151 197/2/149 201/2/152 
f 200/2/119 199/2/119 204/2/119 
f 204/2/119 199/2/119 203/2/119 
f 201/2/150 202/2/150 205/2/153 
f 205/2/153 202/2/150 206/2/153 
f 203/2/151 201/2/152 207/2/154 
f 207/2/154 201/2/152 205/2/154 
f 204/2/119 203/2/119 208/2/119 
f 208/2/119 203/2/119 207/2/119 
f 205/2/153 206/2/153 209/2/155 
f 209/2/155 206/2/153 210/2/155 
f 207/2/154 205/2/154 211/2/156 
f 211/2/156 205/2/154 209/2/156 
f 208/2/119 207/2/119 212/2/119 
f 212/2/119 207/2/119 211/2/119 
f 209/2/155 210/2/155 213/2/157 
f 213/2/157 210/2/155 214/2/157 
f 211/2/156 209/2/156 215/2/158 
f 215/2/158 209/2/156 213/2/158 
f 212/2/119 211/2/119 216/2/119 
f 216/2/119 211/2/119 215/2/119 
f 213/2/157 214/2/157 217/2/159 
f 217/2/159 214/2/157 218/2/159 
f 215/2/158 213/2/158 219/2/160 
f 219/2/160 213/2/158 217/2/160 
f 216/2/119 215/2/119 220/2/119 
f 220/2/119 215/2/119 219/2/119 
f 217/2/159 218/2/159 141/2/114 
f 141/2/114 218/2/159 142/2/114 
f 219/2/160 217/2/160 145/2/116 
f 145/2/116 217/2/160 141/2/116 
f 220/2/119 219/2/119 147/2/119 
f 147/2/119 219/2/119 145/2/119 
# 120 faces

